# xmcd CD database file
#
# Track frame offsets:
#	150
#	14900
#	29462
#	46405
#	61977
#	76332
#	96307
#	111555
#	127437
#	138622
#	153460
#	169082
#	185260
#	199458
#	226928
#	247921
#	275075
#
# Disc length: 3975 seconds
#
# Revision: 0
# Processed by: cddbd v1.5.1PL2 Copyright (c) Steve Scherf et al.
# Submitted via: CDex 1.51
#
DISCID=030f8511
DTITLE=Bent Fabric - Jukebox
DYEAR=2006
DGENRE=Jazz
TTITLE0=Jukebox
TTITLE1=Everytime
TTITLE2=Keep on Rising
TTITLE3=It Feels Like Love
TTITLE4=Shake
TTITLE5=Just Be There For Me
TTITLE6=Pusterummet
TTITLE7=Haven't You Noticed
TTITLE8=Relax Boy
TTITLE9=Bam Boogie
TTITLE10=Bridges
TTITLE11=Shake - Spanish Fly Radio Edit
TTITLE12=Jukebox - Spanish Fly Radio Remix
TTITLE13=Jukebox - Spanish Fly Club Mix
TTITLE14=Jukebox - Extended Version
TTITLE15=Live Medley
TTITLE16=Data track
EXTD=YEAR: 2006
EXTT0=
EXTT1=
EXTT2=
EXTT3=
EXTT4=
EXTT5=
EXTT6=
EXTT7=
EXTT8=
EXTT9=
EXTT10=
EXTT11=
EXTT12=
EXTT13=
EXTT14=
EXTT15=
EXTT16=
PLAYORDER=
